<?xml version="1.0" encoding="UTF-8"?>
<svg version="1.1" xmlns="http://www.w3.org/2000/svg" width="1024" height="1024">
<path d="M0 0 C337.92 0 675.84 0 1024 0 C1024 337.92 1024 675.84 1024 1024 C686.08 1024 348.16 1024 0 1024 C0 686.08 0 348.16 0 0 Z " fill="#FDFCFD" transform="translate(0,0)"/>
<path d="M0 0 C2.17343767 -0.00374002 4.34687399 -0.00834294 6.5203082 -0.01373065 C12.4728817 -0.0259322 18.42539888 -0.02570354 24.37798202 -0.02334189 C30.80552969 -0.02293302 37.23305947 -0.03397955 43.66059875 -0.04345703 C56.24517254 -0.06048453 68.82973032 -0.06559181 81.41431443 -0.06668179 C91.64464275 -0.06760206 101.87496501 -0.07172489 112.10529137 -0.07808304 C115.05362723 -0.07987821 118.00196309 -0.08165784 120.95029896 -0.08343279 C121.68332815 -0.08387489 122.41635733 -0.08431699 123.17159952 -0.08477248 C143.77977291 -0.09707441 164.38794419 -0.10497425 184.99612141 -0.10408592 C185.7725183 -0.10405476 186.54891518 -0.10402361 187.34883925 -0.10399151 C191.28365136 -0.1038253 195.21846348 -0.10362722 199.15327559 -0.10342209 C199.93469875 -0.1033822 200.71612192 -0.10334231 201.52122457 -0.10330121 C203.10145073 -0.10322034 204.68167688 -0.10313674 206.26190303 -0.10305043 C230.84789939 -0.10182491 255.43384059 -0.11684096 280.01982117 -0.14419556 C307.66231144 -0.17493842 335.30476547 -0.19212678 362.94727391 -0.19026911 C365.89655284 -0.19011986 368.84583177 -0.19002244 371.7951107 -0.18996048 C372.52126166 -0.18993717 373.24741261 -0.18991386 373.99556814 -0.18988985 C385.66323245 -0.18982839 397.33084872 -0.20258057 408.99849876 -0.21982501 C420.73037005 -0.23680544 432.46216541 -0.23839423 444.19404236 -0.22560637 C450.54525809 -0.21907924 456.89630028 -0.21895072 463.24749947 -0.23631287 C469.06749178 -0.25205902 474.88717319 -0.24916381 480.70715799 -0.2317446 C482.80664992 -0.22867819 484.90616513 -0.23229342 487.00562958 -0.24346475 C508.86166537 -0.3520109 527.2260235 3.67768882 543.65092468 19.26742554 C557.73027504 33.90799783 561.11526613 51.39024018 561.03910828 70.91268921 C561.04318019 72.67471134 561.04852553 74.43673092 561.05503845 76.19874573 C561.06864116 80.95474262 561.06344348 85.71054291 561.0539012 90.46654296 C561.04627151 95.45692305 561.05335903 100.44728705 561.05805969 105.43766785 C561.06350612 113.81251021 561.05635331 122.18727301 561.04203796 130.56210327 C561.0256976 140.23307222 561.03101452 149.90385154 561.04751718 159.57481593 C561.06114471 167.8952802 561.06304599 176.21568751 561.05520117 184.53615934 C561.05053369 189.49831679 561.04987467 194.46038518 561.05981064 199.42253685 C561.06849705 204.08562513 561.06242785 208.74846943 561.04512787 213.41153145 C561.04117266 215.11909964 561.04228049 216.82668848 561.04891586 218.53424835 C561.05715955 220.87174421 561.04677683 223.20846662 561.03187561 225.5459137 C561.03074453 226.85163424 561.02961346 228.15735479 561.0284481 229.50264263 C560.48473024 234.92476901 559.07141824 239.49180859 555.65092468 243.76742554 C551.01346016 246.0861578 546.72073125 246.24517395 541.65092468 245.26742554 C537.62117276 243.02006389 535.11541144 240.66088581 533.65092468 236.26742554 C533.55499767 233.92536282 533.5219021 231.58059756 533.5196228 229.23657227 C533.51750709 228.51630903 533.51539137 227.79604579 533.51321155 227.05395639 C533.50720703 224.6337239 533.50821205 222.21354349 533.50907898 219.79330444 C533.50604759 218.06028149 533.5025262 216.32725933 533.49855042 214.59423828 C533.49065638 210.85706112 533.48551446 207.11989352 533.48225975 203.3827095 C533.47634729 197.46439957 533.4598023 191.54614971 533.44091797 185.62786865 C533.43458018 183.60060314 533.42825456 181.57333759 533.4219408 179.54607201 C533.41877499 178.53061515 533.41560918 177.51515829 533.41234744 176.46893001 C533.37030992 162.69034692 533.33732634 148.91179109 533.32499695 135.13314819 C533.31659655 125.84083504 533.2940289 116.54867003 533.25564128 107.25643098 C533.23593971 102.34259252 533.22345621 97.42897521 533.22847557 92.51509476 C533.23314801 87.88402993 533.21917587 83.25338289 533.19146347 78.62240219 C533.18459392 76.93146384 533.18437898 75.2404819 533.19166374 73.54954529 C533.24248282 60.41697056 532.40365755 47.15561303 522.65092468 37.26742554 C514.81388328 29.8695287 505.7646227 27.80005746 495.22081852 27.8871088 C494.32280271 27.88244888 493.42478689 27.87778897 492.49955848 27.87298784 C489.50470162 27.86108217 486.51030216 27.87041619 483.51544189 27.87974548 C481.34087837 27.87557064 479.16631703 27.8700923 476.99175972 27.86342567 C471.02691707 27.84897228 465.06221261 27.85321553 459.0973624 27.86059248 C452.66030828 27.86532205 446.22328414 27.8528162 439.78623962 27.84257507 C427.90839271 27.82577918 416.03058764 27.82394247 404.15273164 27.82888007 C393.17866826 27.83343963 382.20462125 27.83283507 371.2305584 27.82703972 C369.75774575 27.82628285 368.2849331 27.82552687 366.81212045 27.82477177 C364.59265089 27.82362656 362.37318134 27.82247668 360.15371179 27.82131253 C339.52338728 27.81060992 318.89306822 27.80587988 298.26274204 27.81378269 C297.48531225 27.81407987 296.70788245 27.81437704 295.90689418 27.81468322 C289.59386249 27.81713208 283.28083087 27.8197437 276.96779926 27.82236735 C252.34188483 27.83247028 227.71603859 27.82411254 203.09013367 27.8008728 C175.41326706 27.77479601 147.7364415 27.7619533 120.05956215 27.76906055 C117.10807702 27.7697766 114.15659188 27.77045099 111.20510674 27.771101 C110.47839309 27.77127081 109.75167944 27.77144062 109.00294417 27.77161557 C98.03746523 27.77391765 87.07202442 27.76594597 76.10655403 27.75280952 C63.63527952 27.73789566 51.16410073 27.737433 38.69282789 27.75488044 C32.32997363 27.76340459 25.96728996 27.76550515 19.6044445 27.75022888 C13.77840787 27.73641454 7.95268849 27.74110343 2.12667035 27.76046812 C0.02046271 27.76423836 -2.08577014 27.76127677 -4.19195538 27.75085647 C-18.26186008 27.68620253 -30.54443298 28.08019133 -41.34907532 38.26742554 C-49.57526979 46.6081378 -51.78573493 57.92045708 -51.86540055 69.29470617 C-51.85374919 70.49805173 -51.84209782 71.7013973 -51.83009338 72.94120789 C-51.83351108 74.25496861 -51.83692878 75.56872934 -51.84045005 76.92230099 C-51.84930739 80.53021314 -51.83351579 84.1376417 -51.8133378 87.74549234 C-51.79594212 91.65054779 -51.801918 95.55557951 -51.8049469 99.46066284 C-51.80703666 106.21364531 -51.79456704 112.9664723 -51.77199554 119.71941566 C-51.73938306 129.48281605 -51.7290591 139.24614182 -51.72404358 149.00959077 C-51.71530538 164.85298383 -51.68872997 180.69629415 -51.65083313 196.53964233 C-51.61407476 211.92310169 -51.58578176 227.30653851 -51.56880188 242.69003296 C-51.56722554 244.11418723 -51.56722554 244.11418723 -51.56561735 245.5671123 C-51.56039692 250.33051265 -51.55534215 255.09391315 -51.55036974 259.85731375 C-51.50895367 299.32740891 -51.43854559 338.79741175 -51.34907532 378.26742554 C-49.78667728 378.27100807 -49.78667728 378.27100807 -48.19271564 378.27466297 C-22.86320903 378.33342429 2.4662022 378.40928621 27.79560375 378.50314045 C40.04465055 378.54813039 52.29366807 378.58753769 64.54277039 378.61386108 C75.21749959 378.63681524 85.89213637 378.67018434 96.56679231 378.7161271 C102.22037625 378.74009412 107.87386845 378.7588001 113.52750206 378.76503944 C118.847073 378.77107453 124.16640912 378.79101734 129.48589325 378.82170105 C131.43980849 378.83050657 133.39375439 378.83419868 135.34768867 378.8324337 C138.01306106 378.83078603 140.6777133 378.84743683 143.34298706 378.86869812 C144.50593451 378.86142676 144.50593451 378.86142676 145.69237584 378.8540085 C150.19226557 378.91335072 153.08569427 379.47043298 156.65092468 382.26742554 C159.70246679 386.28261252 161.00541303 388.82830632 160.65092468 393.89242554 C159.9673467 397.94555964 158.69134553 400.40074302 155.65092468 403.26742554 C151.86829701 405.8640798 147.83732751 405.54079883 143.42527771 405.50793457 C142.17058414 405.51049784 142.17058414 405.51049784 140.89054322 405.5131129 C138.0836956 405.51641091 135.27708627 405.50539896 132.47026062 405.49447632 C130.45984401 405.49391227 128.44942699 405.49422864 126.43901062 405.49536133 C120.97657582 405.4959361 115.51422851 405.48416166 110.05181408 405.47021341 C104.34496693 405.45772676 98.63811786 405.45653719 92.93125916 405.4541626 C82.12241976 405.44794175 71.31362073 405.43152275 60.50479913 405.41146362 C48.20023027 405.38912343 35.8956595 405.37811592 23.59107542 405.36807275 C-1.72233055 405.34715706 -27.03570068 405.31196933 -52.34907532 405.26742554 C-52.30442575 410.44177154 -52.23408829 415.61495411 -52.14155579 420.78866577 C-52.11360781 422.54280251 -52.0922654 424.29705907 -52.07807922 426.05136108 C-51.95619539 440.2833295 -51.56563879 453.33847451 -40.99360657 464.10336304 C-33.36378907 470.34696553 -25.33860269 473.37756534 -15.60211182 473.41891479 C-14.9245021 473.42314721 -14.24689238 473.42737962 -13.54874903 473.43174028 C-11.27898248 473.4447522 -9.00925106 473.45078793 -6.73945618 473.45687866 C-5.11141242 473.46482268 -3.48337078 473.47321077 -1.85533142 473.48200989 C1.65155485 473.50006501 5.15843645 473.51508187 8.66534615 473.52778625 C14.21773371 473.54803099 19.77006923 473.57568383 25.32241821 473.60446167 C37.11939587 473.6645531 48.91640516 473.71633351 60.71342468 473.76742554 C73.42568135 473.82256364 86.1379221 473.87924283 98.85012907 473.94497442 C104.36155181 473.97319693 109.87296896 473.99683936 115.38442719 474.01689911 C118.8265927 474.03037019 122.26873047 474.04777825 125.71087265 474.06620979 C127.29784244 474.07390854 128.88482103 474.08000271 130.47180367 474.0843029 C156.38471822 474.15720647 156.38471822 474.15720647 166.40092468 482.57992554 C172.01828469 489.28954999 173.13625901 494.65067833 172.65092468 503.26742554 C172.23993491 507.24807456 171.64814317 511.18982526 171.02592468 515.14242554 C170.85278748 516.27631714 170.67965027 517.41020874 170.50126648 518.57846069 C168.42402633 532.02174879 166.17861231 545.43945028 163.92045593 558.85336304 C163.80705368 559.52935547 163.69365143 560.2053479 163.57681274 560.90182495 C162.9898388 564.37203322 162.34142442 567.81492686 161.65092468 571.26742554 C205.87092468 571.26742554 250.09092468 571.26742554 295.65092468 571.26742554 C293.67092468 560.37742554 293.67092468 560.37742554 291.65092468 549.26742554 C290.81365526 544.01906826 289.98031531 538.77854069 289.2129364 533.52084351 C288.89327174 531.34022023 288.56325882 529.16130392 288.23295593 526.98226929 C288.0227066 525.55918277 287.81304742 524.13600891 287.60404968 522.71273804 C287.42003601 521.47024292 287.23602234 520.2277478 287.0464325 518.94760132 C286.62226957 515.00079144 286.58409073 511.23308928 286.65092468 507.26742554 C285.57883003 507.27741829 285.57883003 507.27741829 284.4850769 507.28761292 C277.70441282 507.34806475 270.92378972 507.39357152 264.14292431 507.42286205 C260.65792402 507.4384276 257.17314893 507.45949582 253.6882782 507.4937439 C249.66929633 507.53298771 245.65054595 507.54720987 241.63139343 507.56039429 C240.39761459 507.57587814 239.16383575 507.591362 237.89266968 507.60731506 C221.98200439 507.61036934 209.50309053 502.59549185 197.93608093 491.61508179 C188.22813266 481.64161698 182.50586207 470.98766283 182.49702454 456.97067261 C182.49264228 456.12634281 182.48826003 455.28201301 182.48374498 454.41209745 C182.47037257 451.57806392 182.46418155 448.74406147 182.45805359 445.91000366 C182.45015125 443.87964742 182.44188221 441.84929258 182.43327332 439.81893921 C182.40706328 433.14553161 182.39174428 426.47211778 182.37748718 419.79867554 C182.37212663 417.49955746 182.36674912 415.20043941 182.36135483 412.90132141 C182.33972547 403.3346028 182.32099045 393.76788586 182.30973244 384.20114899 C182.29350492 370.50241159 182.26035656 356.80395836 182.20333159 343.10532808 C182.1645842 333.46777232 182.14509391 323.8302924 182.13981187 314.19266081 C182.13616435 308.43987035 182.12420677 302.68738305 182.09170914 296.93467712 C182.06154519 291.51732653 182.05534652 286.10046119 182.0670929 280.68304443 C182.06731295 278.70139249 182.05906488 276.71971749 182.04143906 274.73814392 C181.89547191 257.37389824 185.66992771 244.60064973 197.77592468 231.64242554 C208.4816865 221.31642891 219.22941762 217.97632845 233.65922546 217.94857788 C235.46417103 217.93353494 235.46417103 217.93353494 237.30558014 217.9181881 C240.62127239 217.89259484 243.93679356 217.87575427 247.25254488 217.86278439 C250.80655885 217.84679178 254.36048944 217.81955882 257.91444397 217.79385376 C265.60623426 217.7403917 273.29805563 217.7013735 280.98994446 217.66532135 C285.76668113 217.64284052 290.54339738 217.61719067 295.32011414 217.59085083 C308.24747539 217.51995994 321.17483934 217.45151089 334.10227966 217.39660645 C334.90729628 217.39318359 335.7123129 217.38976074 336.54172397 217.38623416 C338.16161283 217.37935607 339.78150169 217.37247829 341.40139055 217.36560082 C342.19948877 217.36220689 342.99758698 217.35881295 343.81987 217.35531616 C344.61538883 217.35193418 345.41090766 217.3485522 346.23053312 217.34506774 C358.10177824 217.2939943 369.97272791 217.22150135 381.84374881 217.13293815 C392.73922592 217.05172542 403.63468266 216.98732511 414.53037453 216.94239998 C420.3962638 216.91781984 426.26183916 216.88534108 432.12754822 216.83255005 C437.57996634 216.78398986 443.0319663 216.75942124 448.48459244 216.75347137 C450.4504986 216.74727774 452.41640135 216.732622 454.38216782 216.70838165 C471.3858642 216.50679417 484.14099786 219.59351562 497.05717468 231.48226929 C508.57964251 243.33120704 511.98850454 257.06825484 511.84623718 273.07992554 C511.84199234 274.89411987 511.84199234 274.89411987 511.83766174 276.7449646 C511.82651865 280.58588801 511.80142452 284.42657328 511.77592468 288.26742554 C511.76588731 290.88070341 511.75676279 293.49398495 511.74858093 296.10726929 C511.72659851 302.49406849 511.69317943 308.88072999 511.65092468 315.26742554 C521.72785315 310.2510778 531.7771776 305.18830715 541.77592468 300.01742554 C542.39045502 299.69993347 543.00498535 299.38244141 543.63813782 299.05532837 C552.96827884 294.23106528 562.23277917 289.2990553 571.42289734 284.21176147 C573.82555793 282.88421395 576.23569452 281.57195028 578.65092468 280.26742554 C579.50742615 279.79877075 580.36392761 279.33011597 581.24638367 278.84725952 C588.17968195 275.18626447 593.78453774 273.81296337 601.65092468 275.26742554 C606.6006209 277.79243949 608.91588255 281.06238745 610.65092468 286.26742554 C610.90540028 289.42156696 610.90540028 289.42156696 610.91162109 293.04093933 C610.91544664 293.70926952 610.91927219 294.3775997 610.92321366 295.06618232 C610.93350586 297.29846459 610.92955876 299.53048782 610.92558289 301.76278687 C610.92993153 303.36628965 610.93511519 304.96979035 610.94107056 306.57328796 C610.95445725 310.92465336 610.95503946 315.27593188 610.95250726 319.62731385 C610.95143705 323.26285299 610.95632232 326.89837459 610.96111268 330.53390998 C610.9722073 339.11379636 610.9726459 347.69363897 610.96659851 356.27352905 C610.96056157 365.11617192 610.97286272 373.95865556 610.99416858 382.80127126 C611.01180162 390.39974601 611.01778314 397.99817016 611.01453084 405.59666461 C611.01272013 410.13191378 611.01533273 414.66704944 611.02924538 419.20228004 C611.04184637 423.46966851 611.03985821 427.73680948 611.02683449 432.00419426 C611.02447388 433.56663218 611.02718488 435.12908763 611.03545761 436.69150543 C611.12217123 454.34777634 611.12217123 454.34777634 606.21487904 459.88897419 C602.84344987 462.86051301 599.42155728 463.29408526 595.03764343 463.14242554 C589.72642143 462.38723521 585.6686845 459.77436197 581.15092468 457.01742554 C579.29178874 455.91846002 577.43104645 454.82220846 575.56889343 453.72836304 C574.60257996 453.15827515 573.63626648 452.58818726 572.64067078 452.00082397 C567.64214024 449.10277018 562.55390482 446.37469603 557.46342468 443.64242554 C550.33812448 439.8046761 543.22314983 435.95227705 536.15092468 432.01742554 C535.51904236 431.66599487 534.88716003 431.31456421 534.23612976 430.95248413 C526.69489428 426.74710715 519.17546955 422.50256443 511.65092468 418.26742554 C511.67449036 420.17249878 511.67449036 420.17249878 511.6985321 422.11605835 C511.75330224 426.87966435 511.78744426 431.64324318 511.8157196 436.40707397 C511.83069984 438.4592051 511.85109115 440.51130481 511.87724304 442.56332397 C512.12441674 462.47292326 510.30257206 477.95606614 495.99076843 492.98226929 C485.55157137 503.17747844 474.67191099 507.90735291 459.94311523 507.88952637 C458.48853482 507.87184159 457.03396028 507.85366771 455.57939148 507.83505249 C454.01099188 507.83363855 452.44258898 507.83444074 450.87419128 507.83726501 C446.65785585 507.8386871 442.44224605 507.80949579 438.2260778 507.77439523 C433.80456554 507.74292789 429.38303274 507.74018505 424.96142578 507.73426819 C416.60707332 507.71878917 408.25305189 507.67784204 399.89884454 507.62752074 C390.38002867 507.57144122 380.86119616 507.54409419 371.34225595 507.51904356 C351.77829189 507.4669202 332.21463499 507.37909477 312.65092468 507.26742554 C312.78451385 507.93478226 312.91810303 508.60213898 313.05574036 509.28971863 C313.23297638 510.17544052 313.4102124 511.06116241 313.59281921 511.97372437 C313.76765839 512.84733109 313.94249756 513.72093781 314.12263489 514.62101746 C317.80798776 533.08237659 320.37858699 551.58822518 322.65092468 570.26742554 C323.96697693 570.27677124 325.28302917 570.28611694 326.63896179 570.29574585 C331.55384818 570.33582543 336.46812041 570.4016339 341.38261414 570.47494507 C343.50362721 570.50305079 345.624743 570.5243167 347.74589539 570.53842163 C350.80721734 570.55999543 353.86731776 570.60671974 356.92826843 570.65805054 C358.33507118 570.65989349 358.33507118 570.65989349 359.77029419 570.66177368 C369.08642159 570.86582858 376.06600719 574.01960388 382.86186218 580.34164429 C390.08208931 588.11363549 392.16062075 596.26844372 391.95170593 606.73617554 C391.10003476 616.73501637 386.00537727 623.66170211 378.65092468 630.26742554 C373.38496583 633.77497986 368.16298809 635.38811046 361.88909626 635.40164661 C360.92874857 635.40610446 359.96840088 635.4105623 358.97895175 635.41515523 C357.92673141 635.41497087 356.87451108 635.41478651 355.79040527 635.41459656 C354.67036077 635.41827325 353.55031626 635.42194993 352.39633101 635.42573804 C348.62938433 635.43678357 344.86246522 635.4406202 341.09550476 635.44442749 C338.40019059 635.45069144 335.70487937 635.45732536 333.00956726 635.46434021 C324.91175588 635.48409074 316.81394328 635.49416875 308.71611384 635.503068 C304.90134524 635.50745296 301.08657803 635.51281921 297.27181053 635.51805687 C284.58856526 635.53506726 271.90532085 635.54956128 259.22206593 635.55680561 C255.93166922 635.55871546 252.64127253 635.5606358 249.35087585 635.56259155 C248.53307959 635.56307529 247.71528333 635.56355903 246.87270536 635.56405743 C233.62585053 635.57235722 220.37908601 635.59769409 207.13227061 635.63017223 C193.52787941 635.6632548 179.9235341 635.68125543 166.31910247 635.68444985 C158.6823823 635.68661377 151.04579386 635.69534517 143.40911293 635.72091103 C136.905262 635.74263437 130.4015748 635.75066044 123.8976917 635.74094424 C120.58098353 635.73640418 117.26488656 635.74045649 113.94817924 635.75770569 C110.34728889 635.77538413 106.74725315 635.76833716 103.1463623 635.75517273 C101.58476221 635.7716266 101.58476221 635.7716266 99.99161464 635.78841287 C90.20003873 635.70209518 81.66934067 632.21196346 74.65092468 625.26742554 C68.14496111 616.41008266 65.5416037 608.24970326 66.65092468 597.26742554 C69.26360401 586.93546638 75.57400895 578.759047 84.65092468 573.26742554 C89.58319087 570.6171075 94.53634706 571.01345659 99.98295593 571.07211304 C101.47057686 571.07635788 101.47057686 571.07635788 102.98825073 571.08068848 C106.14676628 571.0918575 109.30499526 571.11695627 112.46342468 571.14242554 C114.60860287 571.15245957 116.75378552 571.16158468 118.89897156 571.16976929 C124.14971989 571.19178609 129.40030181 571.22523111 134.65092468 571.26742554 C134.70503006 570.58842697 134.75913544 569.90942841 134.81488037 569.20985413 C135.35139838 562.86388793 136.14269971 556.6262728 137.20951843 550.34945679 C137.35873245 549.44853806 137.50794647 548.54761932 137.66168213 547.61940002 C138.13349318 544.77226545 138.61039682 541.92602241 139.08842468 539.07992554 C139.56260366 536.2516389 140.03545213 533.42315917 140.50445557 530.5940094 C140.79414561 528.84684519 141.08659783 527.10013508 141.38272095 525.35404968 C142.2895082 519.88958897 143.02717264 514.41479386 143.70428467 508.91810608 C143.84159272 507.81124333 143.84159272 507.81124333 143.98167467 506.68201971 C144.20545884 504.87724175 144.42828926 503.07234557 144.65092468 501.26742554 C143.81530754 501.27019092 142.9796904 501.2729563 142.11875153 501.27580547 C121.72583457 501.34224448 101.33293643 501.39179295 80.93993378 501.42286205 C71.07776995 501.43828866 61.21567865 501.45929715 51.3535614 501.4937439 C42.7512998 501.52377569 34.14909077 501.54303105 25.5467782 501.54969102 C20.99776349 501.55358008 16.44889909 501.56263076 11.89993286 501.58461571 C7.60552867 501.60519935 3.3113346 501.61121587 -0.98311424 501.60674858 C-2.54703608 501.60756412 -4.11096603 501.61339808 -5.67484474 501.62504196 C-18.86598333 501.71831796 -32.89514867 501.09427349 -44.72407532 494.64242554 C-45.38270569 494.29760132 -46.04133606 493.9527771 -46.71992493 493.59750366 C-52.72638252 490.31790863 -57.62342275 486.21267162 -62.34907532 481.26742554 C-62.98071594 480.65512085 -63.61235657 480.04281616 -64.26313782 479.41195679 C-77.66286405 465.56950832 -79.81769665 447.32865875 -79.73002625 428.98605347 C-79.73349081 427.38764741 -79.7382607 425.78924376 -79.74420798 424.19084501 C-79.75663794 419.83702918 -79.75058442 415.48341267 -79.74124932 411.12959647 C-79.73442608 406.41922444 -79.74495621 401.70888527 -79.75318909 396.9985199 C-79.76649383 387.78609339 -79.76366324 378.57374041 -79.75495116 369.36131108 C-79.74816217 361.87081687 -79.74726315 354.3803432 -79.75052261 346.8898468 C-79.75098231 345.82172098 -79.75144201 344.75359516 -79.75191564 343.65310189 C-79.75287487 341.4828846 -79.75384751 339.31266731 -79.75483342 337.14245003 C-79.76337776 316.81629147 -79.75356818 296.49017357 -79.73743232 276.16402167 C-79.72403001 258.74225182 -79.72635837 241.32054196 -79.7401886 223.89877319 C-79.7562613 203.6428499 -79.76255388 183.3869622 -79.75335181 163.13103342 C-79.75239621 160.96902371 -79.7514531 158.80701399 -79.75052261 156.64500427 C-79.75005979 155.5813934 -79.74959696 154.51778252 -79.74912011 153.42194101 C-79.74653529 145.94480355 -79.75089024 138.46768876 -79.75796127 130.99055481 C-79.76639526 121.87219141 -79.7640563 112.75390544 -79.74811904 103.63555086 C-79.74026185 98.98771428 -79.73710098 94.34000657 -79.7470665 89.6921711 C-79.75606704 85.42976655 -79.75099319 81.16760919 -79.73513384 76.90522677 C-79.73180857 75.37108844 -79.7334287 73.83692882 -79.74076121 72.30280441 C-79.83591335 50.7236842 -74.47727071 32.77090456 -59.41157532 16.95492554 C-42.52042514 0.91487982 -22.03552783 -0.03599151 0 0 Z " fill="#5440BC" transform="translate(254.3490753173828,203.73257446289063)"/>
<path d="M0 0 C1.44502386 -0.00679667 1.44502386 -0.00679667 2.91924012 -0.01373065 C6.13795118 -0.02636172 9.35649277 -0.0247551 12.57522583 -0.02310181 C14.88675148 -0.0290878 17.19827512 -0.03589351 19.50979614 -0.04345703 C25.78252385 -0.06111558 32.05519698 -0.06581232 38.32794714 -0.0670886 C42.24795568 -0.06851068 46.16795037 -0.07278132 50.08795547 -0.07808304 C63.06067331 -0.09562749 76.03335241 -0.10492336 89.00608157 -0.10342209 C89.70469019 -0.10334218 90.40329881 -0.10326227 91.12307739 -0.10317993 C92.17227606 -0.10305729 92.17227606 -0.10305729 93.24267067 -0.10293217 C104.57849006 -0.10211926 115.91417658 -0.12126082 127.24995755 -0.14945666 C138.90179203 -0.17820901 150.55355566 -0.19162972 162.20542634 -0.19026911 C168.74216355 -0.18975935 175.27875032 -0.19545111 181.81545639 -0.21662521 C187.96328276 -0.23599642 194.11081496 -0.23613941 200.25865173 -0.22159195 C202.5124619 -0.21950149 204.76629043 -0.22421879 207.02006912 -0.23631287 C210.10194032 -0.25177707 213.18279863 -0.24244882 216.26464844 -0.22705078 C217.15192182 -0.23733791 218.03919521 -0.24762503 218.95335567 -0.25822389 C227.03821859 -0.16924136 234.45478155 2.46289923 240.25930786 8.26742554 C244.59996061 14.55033647 245.40845491 19.64577231 245.39974976 27.12879944 C245.40420644 28.32496524 245.40420644 28.32496524 245.40875316 29.54529601 C245.41743269 32.22050539 245.41894778 34.89566999 245.42044067 37.57089233 C245.42506942 39.48789058 245.43009416 41.4048879 245.43548584 43.32188416 C245.44860748 48.53282885 245.45505449 53.74376067 245.4594965 58.95471931 C245.46242796 62.21120168 245.46653294 65.46768054 245.47100067 68.72416115 C245.48467577 78.91540183 245.49434203 89.10663447 245.49820256 99.29788369 C245.5026817 111.05729965 245.52022288 122.81659929 245.54920316 134.57597989 C245.57083166 143.66827275 245.58090749 152.76053291 245.58224368 161.85285121 C245.58329098 167.28185136 245.58918287 172.71074216 245.60706329 178.13971519 C245.62356382 183.24918384 245.6256898 188.35846118 245.61692429 193.46794701 C245.61615494 195.3395794 245.62048305 197.21122215 245.63038254 199.08282852 C245.74240659 221.58866903 245.74240659 221.58866903 237.36087036 230.54086304 C231.93837675 234.99577415 224.24355592 237.38884592 217.24711323 237.39605999 C216.05739618 237.40089666 216.05739618 237.40089666 214.84364444 237.40583104 C213.97818962 237.40428244 213.1127348 237.40273383 212.22105408 237.40113831 C210.83500309 237.40453664 210.83500309 237.40453664 209.42095107 237.40800363 C206.31733407 237.41434562 203.21376071 237.41351412 200.11013794 237.41268921 C197.88772525 237.41568063 195.66531309 237.41908312 193.44290161 237.42286682 C187.39933572 237.43171411 181.35578397 237.43404528 175.31221223 237.43468261 C170.26764199 237.43563153 165.22307505 237.43930975 160.17850608 237.4428547 C148.95491705 237.45053692 137.73133472 237.45352308 126.50774387 237.45284935 C125.49761106 237.45278942 125.49761106 237.45278942 124.46707153 237.45272827 C123.79282478 237.45268739 123.11857803 237.45264651 122.42389955 237.45260439 C111.50502265 237.45219824 100.58618029 237.46175983 89.66731337 237.47586664 C78.44950845 237.49024495 67.23171983 237.49695302 56.0139038 237.49627286 C49.71861742 237.49601796 43.4233701 237.49886471 37.12809181 237.50945091 C31.20444705 237.51913969 25.28087861 237.51920565 19.35723114 237.51193428 C17.18566717 237.51088932 15.01409844 237.51324606 12.84254265 237.51929474 C9.87243238 237.52703032 6.90258461 237.52235935 3.93247986 237.5146637 C3.07817865 237.51980726 2.22387744 237.52495082 1.34368831 237.53025025 C-7.78028613 237.47820342 -15.53798253 236.27885906 -22.33444214 229.73226929 C-28.32074366 223.29112623 -30.19696388 216.45127236 -30.13510132 207.85583496 C-30.14119242 207.04751185 -30.14728353 206.23918875 -30.15355921 205.406371 C-30.17010817 202.7181456 -30.16542509 200.03039808 -30.16061401 197.34213257 C-30.16795904 195.40645865 -30.17654653 193.47078911 -30.1862793 191.53512573 C-30.20845795 186.29125467 -30.21142781 181.04754092 -30.20953178 175.8036294 C-30.20941192 171.42003741 -30.21798263 167.03647855 -30.2263093 162.65289581 C-30.24553015 152.30807455 -30.24843194 141.96333398 -30.2416687 131.61849976 C-30.23502827 120.95974243 -30.25789556 110.30133119 -30.29498243 99.64264405 C-30.32570634 90.4789001 -30.33703655 81.31526733 -30.33314562 72.15147293 C-30.33108097 66.68387475 -30.33651372 61.21654596 -30.36103821 55.74899673 C-30.38334722 50.60569191 -30.38139277 45.46294881 -30.36111069 40.31964111 C-30.35770805 38.43713823 -30.36275743 36.55459721 -30.37709427 34.67214584 C-30.51193768 15.64732705 -30.51193768 15.64732705 -24.74069214 8.26742554 C-17.35408987 1.15009063 -9.91359352 -0.03443223 0 0 Z " fill="#FE961C" transform="translate(493.7406921386719,447.7325744628906)"/>
<path d="M0 0 C1.0000708 0.59876953 2.0001416 1.19753906 3.03051758 1.81445312 C3.58814789 2.14411575 4.1457782 2.47377838 4.7203064 2.81343079 C6.54545313 3.8963973 8.36011778 4.99571704 10.17504883 6.09570312 C11.46022731 6.8631408 12.74596324 7.62964563 14.03222656 8.39526367 C18.02733174 10.77896801 22.00806432 13.18604253 25.98754883 15.59570312 C27.2436454 16.35447566 28.49982846 17.11310504 29.75610352 17.87158203 C35.69685098 21.46033753 41.6288324 25.0632467 47.55395508 28.67773438 C53.01689839 32.00903192 58.49687356 35.31038754 63.98754883 38.59570312 C64.75010986 39.05452881 65.5126709 39.51335449 66.29833984 39.98608398 C70.645146 42.60131189 75.00301355 45.19602118 79.3762207 47.76678467 C81.94841315 49.28243601 84.51384205 50.8093129 87.07836914 52.33789062 C88.33788924 53.08522736 89.60021747 53.82785422 90.86547852 54.56542969 C92.64291429 55.60234614 94.40962109 56.65569343 96.17504883 57.71289062 C97.19985352 58.3172998 98.2246582 58.92170898 99.28051758 59.54443359 C103.46602204 62.71602527 105.74255604 65.88075363 106.48754883 71.09570312 C105.90868319 75.14776262 104.76440504 77.66149476 101.98754883 80.59570312 C98.78923875 82.84678913 95.3779565 84.64202791 91.92504883 86.47070312 C89.83496251 87.61371648 87.74648471 88.75967485 85.65942383 89.90820312 C84.01876953 90.80732422 84.01876953 90.80732422 82.3449707 91.72460938 C76.72053822 94.85910985 71.20119803 98.16695294 65.67504883 101.47070312 C55.76545399 107.37618574 45.81121412 113.19646582 35.79516602 118.91992188 C30.03646559 122.22061905 24.32955852 125.58797489 18.67114258 129.05664062 C16.84593585 130.16756242 15.02016227 131.27754809 13.19433594 132.38745117 C11.47427804 133.44056238 9.76490348 134.51106088 8.0559082 135.58203125 C1.87028521 139.34177156 -2.7076758 141.62495147 -10.01245117 141.59570312 C-14.31489057 139.91213988 -15.94704227 137.6397402 -18.01245117 133.59570312 C-18.39276791 130.97978973 -18.39276791 130.97978973 -18.40013123 128.1307373 C-18.41003586 127.04566391 -18.41994049 125.96059052 -18.43014526 124.84263611 C-18.42564362 123.66222244 -18.42114197 122.48180878 -18.41650391 121.265625 C-18.42336716 120.01471573 -18.43023041 118.76380646 -18.43730164 117.47499084 C-18.4524538 114.05132271 -18.45406755 110.62819961 -18.44835925 107.20453835 C-18.44526595 104.34412721 -18.4513613 101.48376524 -18.457398 98.62336111 C-18.47143684 91.87500501 -18.46988689 85.12677553 -18.45849609 78.37841797 C-18.4470108 71.42037974 -18.46109858 64.46272676 -18.48789257 57.50473928 C-18.51005285 51.52581365 -18.51668638 45.54700892 -18.51081616 39.56804514 C-18.50744667 35.99920326 -18.50986093 32.43060843 -18.52706718 28.86180115 C-18.54541388 24.88297425 -18.53134574 20.90462102 -18.51416016 16.92578125 C-18.52382813 15.74536758 -18.53349609 14.56495392 -18.54345703 13.34877014 C-18.4710277 5.35710441 -18.4710277 5.35710441 -16.09437561 1.41101074 C-10.79586199 -3.20896102 -6.4674373 -3.0148877 0 0 Z " fill="#FDFCFD" transform="translate(569.012451171875,495.404296875)"/>
<path d="M0 0 C0 38.61 0 77.22 0 117 C-4.51814419 115.49395194 -7.90780125 114.10399397 -11.98046875 111.83203125 C-13.1317627 111.19313965 -14.28305664 110.55424805 -15.46923828 109.89599609 C-16.70870507 109.20157989 -17.94812451 108.50707915 -19.1875 107.8125 C-20.47352993 107.0966905 -21.75982965 106.38136553 -23.04638672 105.66650391 C-25.70579703 104.18778966 -28.36358905 102.70622853 -31.02001953 101.22216797 C-35.45960478 98.74219846 -39.90485011 96.27247912 -44.35081482 93.80397034 C-47.20234749 92.22072284 -50.0533437 90.63653503 -52.90307617 89.05004883 C-53.93795166 88.47407959 -54.97282715 87.89811035 -56.0390625 87.3046875 C-56.92803223 86.80952637 -57.81700195 86.31436523 -58.73291016 85.80419922 C-63.47812506 83.18372858 -68.24119613 80.5957112 -73 78 C-73 64.8 -73 51.6 -73 38 C-56.66134006 29.23498972 -40.31113366 20.49379775 -23.92773438 11.81274414 C-22.64842161 11.1343073 -21.36912435 10.45584123 -20.08984375 9.77734375 C-19.48103363 9.45498245 -18.87222351 9.13262115 -18.2449646 8.80049133 C-13.48632969 6.27491977 -8.77213201 3.67393811 -4.07641602 1.03344727 C-2 0 -2 0 0 0 Z " fill="#FD971C" transform="translate(838,513)"/>
<path d="M0 0 C9.96563062 6.70340071 17.54571026 16.4379421 20.015625 28.33984375 C21.37553494 41.41481119 18.93918134 52.5346719 10.99609375 63.0859375 C3.7715173 71.30798999 -5.90499603 76.84428722 -16.890625 77.61328125 C-29.92988841 78.02178126 -39.75667566 75.81133976 -50.01953125 67.21875 C-58.22220953 59.37483698 -62.97029309 49.54666556 -63.32836914 38.19726562 C-63.49980477 25.16275862 -60.662548 16.08705125 -51.36328125 6.52734375 C-36.73437068 -6.92452804 -17.57732497 -9.77796219 0 0 Z " fill="#FE951C" transform="translate(733.984375,273.66015625)"/>
<path d="M0 0 C0.92722288 -0.00720654 1.85444575 -0.01441309 2.80976629 -0.02183801 C4.34024091 -0.01077658 4.34024091 -0.01077658 5.90163422 0.00050831 C7.52551615 -0.0054533 7.52551615 -0.0054533 9.18220377 -0.01153535 C12.82819203 -0.02119876 16.47379618 -0.00931556 20.11977386 0.00241566 C22.72615453 -0.00001097 25.33253428 -0.00372902 27.93891144 -0.00864697 C34.29430836 -0.01814622 40.64959192 -0.01152532 47.00498044 0.00061598 C54.40188408 0.01422176 61.79876056 0.01259938 69.19567353 0.01048265 C82.39126284 0.00729111 95.58679821 0.01896986 108.78237152 0.03854847 C121.59456271 0.05755333 134.40669068 0.06463622 147.21889496 0.05905628 C161.16148857 0.05300202 175.10405435 0.05316908 189.04664564 0.06454211 C190.53262552 0.06574944 192.01860539 0.06695542 193.50458527 0.06816006 C194.23576739 0.0687636 194.96694951 0.06936713 195.72028866 0.06998896 C200.87960207 0.07387255 206.03890514 0.07347278 211.1982193 0.07157421 C218.13878251 0.0692337 225.07926276 0.07776215 232.01980782 0.09363461 C234.57283758 0.09789042 237.12587559 0.09871936 239.67890739 0.0959444 C243.15257294 0.09274063 246.62599207 0.10175888 250.09963226 0.1140337 C251.63010689 0.10836471 251.63010689 0.10836471 253.19150019 0.1025812 C254.11872306 0.1084134 255.04594594 0.11424559 256.00126648 0.12025452 C257.20462906 0.12155468 257.20462906 0.12155468 258.432302 0.12288111 C260.50063324 0.37473011 260.50063324 0.37473011 263.50063324 2.37473011 C263.81313324 5.87473011 263.81313324 5.87473011 263.50063324 9.37473011 C261.06063387 11.81472948 260.45328449 11.62560739 257.10869694 11.6292057 C256.17998171 11.6350379 255.25126649 11.64087009 254.29440838 11.64687902 C253.26728818 11.64309969 252.24016797 11.63932037 251.18192291 11.63542652 C250.09610583 11.63925207 249.01028875 11.64307762 247.89156812 11.64701909 C244.22873749 11.65739319 240.56606233 11.65334858 236.90322113 11.64938831 C234.28713586 11.65373234 231.67105187 11.65891445 229.05496979 11.66487598 C222.6720603 11.67764959 216.28919283 11.67941337 209.90627272 11.67707572 C204.7199372 11.67529535 199.53361448 11.67703615 194.3472805 11.68130016 C193.61017156 11.68189535 192.87306262 11.68249054 192.11361704 11.68310377 C190.6163553 11.68431547 189.11909356 11.68552961 187.62183183 11.68674614 C173.56864151 11.69763196 159.51547516 11.69545428 145.46228348 11.6893613 C132.59601946 11.68419132 119.72983113 11.69544783 106.86358208 11.71445952 C93.66382225 11.73381502 80.46409826 11.74209794 67.26432413 11.73833627 C59.84912688 11.73642072 52.43399407 11.73894601 45.01880836 11.7530508 C38.04787176 11.76617595 31.07708951 11.76373573 24.10615349 11.75063992 C21.54183273 11.74826293 18.97750145 11.75104859 16.41319275 11.75926304 C12.92405807 11.76963749 9.43544253 11.76170477 5.94632721 11.74895191 C4.40899299 11.76001334 4.40899299 11.76001334 2.8406015 11.77129823 C1.44361705 11.76048842 1.44361705 11.76048842 0.01841068 11.74946022 C-0.78741087 11.74951524 -1.59323243 11.74957025 -2.42347282 11.74962693 C-5.02742736 11.27936481 -5.91421726 10.46024124 -7.49936676 8.37473011 C-7.87436676 5.87473011 -7.87436676 5.87473011 -7.49936676 3.37473011 C-5.24260318 0.40835632 -3.65757873 -0.00025083 0 0 Z " fill="#FDFCFD" transform="translate(355.4993667602539,800.6252698898315)"/>
<path d="M0 0 C1.62929174 1.56120194 3.08952956 3.11565224 4.47265625 4.90234375 C8.88320976 10.54828572 13.19300447 12.91818245 20 15 C17.38058783 16.74627478 15.96175123 17.38722388 13 18 C13 16.68 13 15.36 13 14 C11.68 14 10.36 14 9 14 C6.89453125 11.953125 6.89453125 11.953125 4.8125 9.25 C4.11769531 8.36828125 3.42289062 7.4865625 2.70703125 6.578125 C1.17223282 4.26012279 0.42419223 2.7097653 0 0 Z " fill="#463ACE" transform="translate(465,669)"/>
<path d="M0 0 C4.18851464 0.59835923 8.10319471 1.31728862 12 3 C13.125 4.6875 13.125 4.6875 14 7 C14.72134795 8.19226566 15.45119174 9.37941487 16.1875 10.5625 C17.0846875 12.2640625 17.0846875 12.2640625 18 14 C17.67 14.99 17.34 15.98 17 17 C16.63648438 16.32453125 16.27296875 15.6490625 15.8984375 14.953125 C11.79227029 7.66731035 8.01820896 3.8299561 0 1 C0 0.67 0 0.34 0 0 Z " fill="#453ACD" transform="translate(721,448)"/>
<path d="M0 0 C0.886875 0.309375 1.77375 0.61875 2.6875 0.9375 C5.8534788 2.0707618 5.8534788 2.0707618 8.6875 2.3125 C11 3 11 3 12.8125 5.5625 C13.204375 6.366875 13.59625 7.17125 14 8 C8.76481294 6.56032356 4.36973991 4.18303389 0 1 C0 0.67 0 0.34 0 0 Z " fill="#F6A312" transform="translate(813,616)"/>
<path d="M0 0 C1.65 0 3.3 0 5 0 C2.63055987 2.61885488 0.16266898 4.41866551 -3 6 C-3.99 5.67 -4.98 5.34 -6 5 C-5.195625 4.54625 -4.39125 4.0925 -3.5625 3.625 C-0.91143428 2.25274335 -0.91143428 2.25274335 0 0 Z " fill="#4437CC" transform="translate(815,521)"/>
<path d="M0 0 C2.64 0 5.28 0 8 0 C5.56159764 2.43840236 3.14759102 3.62292893 0 5 C-0.66 4.67 -1.32 4.34 -2 4 C-1.34 2.68 -0.68 1.36 0 0 Z " fill="#443BD0" transform="translate(474,448)"/>
</svg>
